<mxfile host="app.diagrams.net" agent="Mozilla/5.0 (Windows NT 10.0; Win64; x64) AppleWebKit/537.36 (KHTML, like Gecko) Chrome/134.0.0.0 Safari/537.36" version="26.1.0">
  <diagram name="Página-1" id="MZLvHIG5NPyHwXk6_NMD">
    <mxGraphModel dx="1602" dy="417" grid="1" gridSize="10" guides="1" tooltips="1" connect="1" arrows="1" fold="1" page="1" pageScale="1" pageWidth="827" pageHeight="1169" background="#FFFFFF" math="0" shadow="0">
      <root>
        <mxCell id="0" />
        <mxCell id="1" parent="0" />
        <mxCell id="t0hFjzPdQ7pPO2Y8R2oc-5" value="Atende" style="shape=rhombus;perimeter=rhombusPerimeter;whiteSpace=wrap;html=1;align=center;fillColor=#F0FF23;strokeColor=#871E1E;" vertex="1" parent="1">
          <mxGeometry x="30" y="260" width="120" height="60" as="geometry" />
        </mxCell>
        <mxCell id="t0hFjzPdQ7pPO2Y8R2oc-9" value="Paciente" style="whiteSpace=wrap;html=1;align=center;gradientColor=none;fillColor=#FFAAC6;strokeColor=#78151F;" vertex="1" parent="1">
          <mxGeometry x="210" y="220" width="100" height="40" as="geometry" />
        </mxCell>
        <mxCell id="t0hFjzPdQ7pPO2Y8R2oc-20" style="edgeStyle=orthogonalEdgeStyle;rounded=0;orthogonalLoop=1;jettySize=auto;html=1;curved=1;" edge="1" parent="1" source="t0hFjzPdQ7pPO2Y8R2oc-11" target="t0hFjzPdQ7pPO2Y8R2oc-21">
          <mxGeometry relative="1" as="geometry">
            <mxPoint x="-95" y="160" as="targetPoint" />
          </mxGeometry>
        </mxCell>
        <mxCell id="t0hFjzPdQ7pPO2Y8R2oc-11" value="Médico" style="whiteSpace=wrap;html=1;align=center;" vertex="1" parent="1">
          <mxGeometry x="-150" y="220" width="110" height="50" as="geometry" />
        </mxCell>
        <mxCell id="t0hFjzPdQ7pPO2Y8R2oc-12" value="" style="edgeStyle=entityRelationEdgeStyle;fontSize=12;html=1;endArrow=blockThin;endFill=1;startArrow=none;rounded=1;startFill=0;entryX=0.025;entryY=0.432;entryDx=0;entryDy=0;entryPerimeter=0;curved=0;exitX=0.885;exitY=0.412;exitDx=0;exitDy=0;exitPerimeter=0;strokeWidth=1;" edge="1" parent="1" source="t0hFjzPdQ7pPO2Y8R2oc-5" target="t0hFjzPdQ7pPO2Y8R2oc-9">
          <mxGeometry width="60" height="60" relative="1" as="geometry">
            <mxPoint x="140" y="290" as="sourcePoint" />
            <mxPoint x="238.0999999999999" y="237.27999999999997" as="targetPoint" />
            <Array as="points">
              <mxPoint x="110" y="190" />
            </Array>
          </mxGeometry>
        </mxCell>
        <mxCell id="t0hFjzPdQ7pPO2Y8R2oc-14" value="" style="edgeStyle=entityRelationEdgeStyle;fontSize=12;html=1;endArrow=blockThin;endFill=1;startArrow=none;rounded=1;startFill=0;exitX=0.986;exitY=0.595;exitDx=0;exitDy=0;exitPerimeter=0;curved=0;" edge="1" parent="1" source="t0hFjzPdQ7pPO2Y8R2oc-11" target="t0hFjzPdQ7pPO2Y8R2oc-5">
          <mxGeometry width="60" height="60" relative="1" as="geometry">
            <mxPoint x="-10" y="250" as="sourcePoint" />
            <mxPoint x="-10" y="290" as="targetPoint" />
            <Array as="points">
              <mxPoint y="260" />
              <mxPoint x="50" y="220" />
              <mxPoint y="280" />
              <mxPoint x="-10" y="280" />
              <mxPoint x="20" y="250" />
              <mxPoint x="70" y="250" />
              <mxPoint x="100" y="160" />
              <mxPoint x="20" y="260" />
            </Array>
          </mxGeometry>
        </mxCell>
        <mxCell id="t0hFjzPdQ7pPO2Y8R2oc-16" value="" style="edgeStyle=orthogonalEdgeStyle;fontSize=12;html=1;endArrow=blockThin;endFill=1;startArrow=none;rounded=1;startFill=0;exitX=0.5;exitY=0;exitDx=0;exitDy=0;curved=1;entryX=0.091;entryY=0.473;entryDx=0;entryDy=0;entryPerimeter=0;" edge="1" parent="1" source="t0hFjzPdQ7pPO2Y8R2oc-9" target="t0hFjzPdQ7pPO2Y8R2oc-17">
          <mxGeometry width="60" height="60" relative="1" as="geometry">
            <mxPoint x="290" y="200" as="sourcePoint" />
            <mxPoint x="240" y="130" as="targetPoint" />
            <Array as="points">
              <mxPoint x="260" y="200" />
              <mxPoint x="180" y="200" />
              <mxPoint x="180" y="130" />
              <mxPoint x="251" y="130" />
            </Array>
          </mxGeometry>
        </mxCell>
        <mxCell id="t0hFjzPdQ7pPO2Y8R2oc-19" style="edgeStyle=orthogonalEdgeStyle;rounded=1;orthogonalLoop=1;jettySize=auto;html=1;exitX=0.5;exitY=0;exitDx=0;exitDy=0;entryX=0;entryY=0.5;entryDx=0;entryDy=0;curved=0;" edge="1" parent="1" source="t0hFjzPdQ7pPO2Y8R2oc-17" target="t0hFjzPdQ7pPO2Y8R2oc-18">
          <mxGeometry relative="1" as="geometry" />
        </mxCell>
        <mxCell id="t0hFjzPdQ7pPO2Y8R2oc-17" value="Agenda" style="shape=rhombus;perimeter=rhombusPerimeter;whiteSpace=wrap;html=1;align=center;fillColor=#F0FF23;strokeColor=#871E1E;" vertex="1" parent="1">
          <mxGeometry x="170" y="110" width="120" height="60" as="geometry" />
        </mxCell>
        <mxCell id="t0hFjzPdQ7pPO2Y8R2oc-18" value="consulta" style="whiteSpace=wrap;html=1;align=center;gradientColor=none;fillColor=#D1FFF1;strokeColor=#617A5F;" vertex="1" parent="1">
          <mxGeometry x="270" y="50" width="100" height="40" as="geometry" />
        </mxCell>
        <mxCell id="t0hFjzPdQ7pPO2Y8R2oc-23" style="edgeStyle=orthogonalEdgeStyle;rounded=0;orthogonalLoop=1;jettySize=auto;html=1;entryX=0.5;entryY=1;entryDx=0;entryDy=0;" edge="1" parent="1" source="t0hFjzPdQ7pPO2Y8R2oc-21" target="t0hFjzPdQ7pPO2Y8R2oc-24">
          <mxGeometry relative="1" as="geometry">
            <mxPoint x="-10" y="80" as="targetPoint" />
          </mxGeometry>
        </mxCell>
        <mxCell id="t0hFjzPdQ7pPO2Y8R2oc-21" value="Prescreve" style="shape=rhombus;perimeter=rhombusPerimeter;whiteSpace=wrap;html=1;align=center;fillColor=#F0FF23;strokeColor=#871E1E;" vertex="1" parent="1">
          <mxGeometry x="-70" y="120" width="120" height="60" as="geometry" />
        </mxCell>
        <mxCell id="t0hFjzPdQ7pPO2Y8R2oc-24" value="Receita" style="whiteSpace=wrap;html=1;align=center;gradientColor=none;fillColor=#D1FFF1;strokeColor=#617A5F;" vertex="1" parent="1">
          <mxGeometry x="-140" y="50" width="100" height="40" as="geometry" />
        </mxCell>
        <mxCell id="t0hFjzPdQ7pPO2Y8R2oc-26" style="edgeStyle=orthogonalEdgeStyle;rounded=1;orthogonalLoop=1;jettySize=auto;html=1;entryX=1;entryY=1;entryDx=0;entryDy=0;curved=1;" edge="1" parent="1" source="t0hFjzPdQ7pPO2Y8R2oc-25" target="t0hFjzPdQ7pPO2Y8R2oc-27">
          <mxGeometry relative="1" as="geometry">
            <mxPoint x="-110" y="380" as="targetPoint" />
            <Array as="points">
              <mxPoint x="-100" y="380" />
              <mxPoint x="-100" y="365" />
            </Array>
          </mxGeometry>
        </mxCell>
        <mxCell id="t0hFjzPdQ7pPO2Y8R2oc-25" value="Enfermeiro" style="whiteSpace=wrap;html=1;align=center;gradientColor=none;fillColor=#C7FF7F;strokeColor=#70604B;" vertex="1" parent="1">
          <mxGeometry x="-70" y="360" width="100" height="40" as="geometry" />
        </mxCell>
        <mxCell id="t0hFjzPdQ7pPO2Y8R2oc-28" style="edgeStyle=orthogonalEdgeStyle;rounded=0;orthogonalLoop=1;jettySize=auto;html=1;entryX=0;entryY=0.5;entryDx=0;entryDy=0;" edge="1" parent="1" source="t0hFjzPdQ7pPO2Y8R2oc-27" target="t0hFjzPdQ7pPO2Y8R2oc-11">
          <mxGeometry relative="1" as="geometry" />
        </mxCell>
        <mxCell id="t0hFjzPdQ7pPO2Y8R2oc-27" value="Assiste" style="shape=rhombus;perimeter=rhombusPerimeter;whiteSpace=wrap;html=1;align=center;fillColor=#F0FF23;strokeColor=#871E1E;" vertex="1" parent="1">
          <mxGeometry x="-240" y="320" width="120" height="60" as="geometry" />
        </mxCell>
      </root>
    </mxGraphModel>
  </diagram>
</mxfile>
